# xmcd
#
# Track frame offsets: 
#        150
#        15685
#        38025
#        57412
#        70650
#        85525
#        102837
#        133065
#        148072
#        176822
#        186225
#        212890
#        233212
#        245525
#
# Disc length: 3510 seconds
#
# Revision: 3
# Processed by: cddbd v1.5.2PL0 Copyright (c) Steve Scherf et al.
# Submitted via: ExactAudioCopy v0.99pb5
#
DISCID=c70db40e
DTITLE=Various Artist - The Blues Guitar Box 2 [Disc1]
DYEAR=1991
DGENRE=Blues
TTITLE0=Jesse 'Guitar' Taylor - Last Night
TTITLE1=Robert Cray - T Bone Shuffle
TTITLE2=Stevie Ray Vaughan and Double Trouble - Leave My Girl Alone
TTITLE3=B.B. King - When My Heart Beats Like A Hammer
TTITLE4=Lil' Ed And The Blues Imperials - Chicken Gravy and Biscuits
TTITLE5=John Mayall Featuring Eric Clapton - Bernard Jenkins
TTITLE6=Little Milton - I Can't Quit You Baby
TTITLE7=Elmore James - Wild About You Baby
TTITLE8=Buddy Guy - First Time I Met The Blues
TTITLE9=John Lee Hooker - Think Twice Before You Go
TTITLE10=Otis Grand and Joe Louis Walker - SRV (My Mood Too)
TTITLE11=Kenny Neal - Our Love Is Running Out
TTITLE12=Johnny 'Guitar' Watson - Too Tired
TTITLE13=John Mayalls Bluesbreakers - Driving Sideways
EXTD=
EXTT0=
EXTT1=
EXTT2=
EXTT3=
EXTT4=
EXTT5=
EXTT6=
EXTT7=
EXTT8=
EXTT9=
EXTT10=
EXTT11=
EXTT12=
EXTT13=
PLAYORDER=
